<svg viewBox="0 0 41 40" fill="none" xmlns="http://www.w3.org/2000/svg">
    <rect x="0.25" width="40" height="40" rx="20" fill="#3F3F46"/>
    <path d="M13.6663 12.9391C13.6663 9.40433 16.54 6.53064 20.0748 6.53064C23.6096 6.53064 26.4833 9.40433 26.4833 12.9391C26.4698 16.4064 23.758 19.2126 20.3042 19.3341H20.2097C20.1288 19.3206 20.0208 19.3206 19.9129 19.3341C16.3781 19.2126 13.6663 16.4064 13.6663 12.9391Z"
          fill="white"/>
    <path d="M13.2344 22.9213C17.0255 20.4119 23.1641 20.4119 26.9282 22.9213C28.6281 24.0546 29.559 25.5926 29.5725 27.252C29.5725 28.925 28.6281 30.463 26.9282 31.6098C25.0394 32.878 22.557 33.5121 20.0745 33.5121C17.5921 33.5121 15.1097 32.878 13.2209 31.6098C11.521 30.4765 10.5766 28.9385 10.5766 27.279C10.5766 25.6196 11.521 24.0681 13.2344 22.9213Z"
          fill="white"/>
</svg>
